<?xml version="1.0" encoding="utf-8"?>
<!-- Generator: Adobe Illustrator 24.2.3, SVG Export Plug-In . SVG Version: 6.00 Build 0)  -->
<svg version="1.1" id="Calque_1" xmlns="http://www.w3.org/2000/svg" xmlns:xlink="http://www.w3.org/1999/xlink" x="0px" y="0px"
	 viewBox="0 0 200 200" style="enable-background:new 0 0 200 200;" xml:space="preserve">
<style type="text/css">
	.st0{fill:#005350;}
	.st1{fill:#FFFFFF;}
	.st2{fill:#35B5B3;}
</style>
<rect x="0" y="0" class="st0" width="200" height="200"/>
<path class="st1" d="M123.4,77.1h19.8c1.3,0,2.6-0.1,3.9-0.3v6.1c-1.3-0.2-2.5-0.3-3.8-0.3h-20v11h21.2c1.4-0.1,2.8-0.2,4.1-0.5v6.7
	h-35c0.5-1,0.7-2,0.7-3.1V63.9c0-1.1-0.3-2.2-0.7-3.2h34.4l0.5,6.8c-1.3-0.4-2.6-0.6-3.9-0.6h-21.3V77.1z"/>
<path class="st1" d="M167.3,77.1h17.6c1.4,0.1,2.8-0.1,4.1-0.4v6.7c-1.3-0.3-2.7-0.5-4.1-0.4h-17.7v13c0.1,1.3,0.3,2.6,0.6,3.8
	h-10.5c0.5-1.2,0.7-2.5,0.7-3.8V65c0-1.4-0.2-2.8-0.5-4.2h32.7l0.8,6.6c-1.3-0.3-2.6-0.4-3.9-0.4h-19.9L167.3,77.1z"/>
<path class="st1" d="M69.3,99.9h-9.7c1-1,0.9-4.2,0.9-4.2v-31c0.1-1.4-0.3-2.8-0.9-4.1h9.7v5.6c0,0,3.9-6.3,17-6.2
	c7.8,0,15.8,2.8,17.1,9.5c0,0,1,0.6,0.9,13.8v12.7c0,0,0.5,3.8,0.9,4H95.1c0.5-1.3,0.7-2.6,0.7-4v-20c0,0,0.2-3.7-1.6-5.8
	c-1.4-1.7-3-3.7-11.7-3.3c0,0-5.9-0.1-9.3,2.4c-2.6,1.9-4,4.9-3.9,8V99.9z"/>
<path class="st2" d="M110.9,48.5h3.5c0.2,0,0.5,0,0.7,0v1.1c-0.2,0-0.5,0-0.7,0h-3.6v2h3.8c0.2,0,0.5,0,0.7-0.1v1.2H109
	c0.1-0.2,0.1-0.4,0.1-0.6v-6c0-0.2-0.1-0.4-0.1-0.6h6.4l0.1,1.2c-0.2-0.1-0.5-0.1-0.7-0.1h-3.8V48.5z"/>
<path class="st2" d="M39.4,52l-2-2.3c1.1-0.1,1.9-1.1,1.9-2.1c0-0.7-0.4-1.2-1-1.5c-0.8-0.4-1.8-0.5-2.7-0.5h-4.2
	c0.1,0.2,0.1,0.4,0.1,0.6V52c0,0.2,0,0.4-0.1,0.5h2v-2.8h2l2.3,2.8h2.3C39.7,52.4,39.5,52.2,39.4,52z M35.9,48.7h-2.5v-2H36
	c0.4,0,0.7,0,1.1,0.2c0.3,0.1,0.6,0.4,0.6,0.8c0,0,0.2,0.7-0.8,0.9C36.6,48.6,36.2,48.7,35.9,48.7z"/>
<path class="st2" d="M16.4,49.1v1.1c0,0,0.1-0.1,1.1-0.1H20v0.1c-0.9,1.1-3.7,1-3.7,1c-3.5,0-3-2.4-3-2.4c0.2-2,2.5-2.1,3.1-2.1
	c1.3,0,2.7,0.2,3.9,0.6v-1.3c-1.3-0.5-2.7-0.7-4.1-0.6c-0.8,0-4.4,0-4.7,3.4c0,0-0.5,3.7,4.8,3.7c1.5,0,3-0.3,4.3-1v-2.5H16.4z"/>
<path class="st2" d="M50.4,49c0-2,1.4-3.6,4.7-3.6c3.3,0,4.7,1.6,4.7,3.6c0,2-1.4,3.6-4.7,3.6S50.4,51,50.4,49z M55,51.4
	c2.3,0,2.7-1.1,2.7-2.4c0-1.3-0.4-2.4-2.7-2.4c-2.3,0-2.7,1.1-2.7,2.4C52.3,50.3,52.9,51.4,55,51.4z"/>
<path class="st2" d="M98.3,47.5c0-0.7-0.4-1.2-1-1.5c-0.8-0.4-1.8-0.5-2.7-0.5h-4.2c0.1,0.2,0.1,0.4,0.1,0.6V52c0,0.2,0,0.4-0.1,0.6
	h2v-2.8h2c0.7,0,1.4,0,2,0C97.6,49.6,98.4,48.6,98.3,47.5z M96,48.5c-0.3,0.1-0.7,0.1-1,0.1h-2.5v-2h2.6c0.4,0,0.7,0,1.1,0.2
	c0.3,0.1,0.6,0.4,0.6,0.7C96.7,47.6,96.9,48.3,96,48.5z"/>
<path class="st2" d="M79.3,45.5h-2.1v3.7c0,0,0,1.3-0.6,1.7c-0.5,0.3-1.1,0.4-1.7,0.4c-0.6,0-1.2-0.2-1.7-0.5
	c-0.7-0.4-0.6-1.7-0.6-1.7v-3.6h-2.1c0,0.1,0,0.2,0,0.4l0,0v3.5c0,0.8,0.3,1.6,0.8,2.1c1,0.8,2.2,1.2,3.5,1h0.2
	c1.2,0.1,2.5-0.2,3.5-1c0.6-0.6,0.9-1.3,0.9-2.1v-3.6C79.2,45.7,79.2,45.6,79.3,45.5z"/>
<path class="st1" d="M18.8,70.4c0,0-0.5-5.5,12.4-4.9c12.1,0.5,16.5,5.4,16.5,5.4v-8c0,0-1.2-1.3-7.7-2.5c-3.1-0.5-6.2-0.8-9.3-1
	c-10.7-0.6-19.1,1.9-20.9,9v0.4c-1.1,4.4,1.1,9,5.3,11c4.7,2.5,8.4,2.4,15.3,3.3c6.9,0.8,10.4,1.4,10.3,5.5c0,0.9-0.1,1.7-0.5,2.5
	v0.1c-1,1.7-3.9,3.6-11.7,3.4C13,94.1,10.5,90.3,9.9,88v10.4c6,1.9,12.3,2.8,18.6,2.7c0,0,20.7,1.9,21.2-12.8v-0.2
	c0.4-5.1-3-9.7-8-10.7c-3.4-0.7-6.9-1.2-10.4-1.4C28.2,75.6,18.5,75.9,18.8,70.4z"/>
</svg>
